PathFileType	4	(X/Y/Z)	C:\Users\chris\Documents\GitHub\baseballds\vids\pitch1_Sports2D\pitch1_Sports2D_px_person00.trc
DataRate	CameraRate	NumFrames	NumMarkers	Units	OrigDataRate	OrigDataStartFrame	OrigNumFrames
30	30	9	22	m	30	115	154
Frame#	Time	Hip			RHip			RKnee			RAnkle			RBigToe			RSmallToe			RHeel			LHip			LKnee			LAnkle			LBigToe			LSmallToe			LHeel			Neck			Head			Nose			RShoulder			RElbow			RWrist			LShoulder			LElbow			LWrist		
		X1	Y1	Z1	X2	Y2	Z2	X3	Y3	Z3	X4	Y4	Z4	X5	Y5	Z5	X6	Y6	Z6	X7	Y7	Z7	X8	Y8	Z8	X9	Y9	Z9	X10	Y10	Z10	X11	Y11	Z11	X12	Y12	Z12	X13	Y13	Z13	X14	Y14	Z14	X15	Y15	Z15	X16	Y16	Z16	X17	Y17	Z17	X18	Y18	Z18	X19	Y19	Z19	X20	Y20	Z20	X21	Y21	Z21	X22	Y22	Z22
115	3.8333333333333335	918.2440457977881	600.22558728722	0.0	867.081590537437	614.5399469427176	0.0	801.4148383346726	789.5808090640874	0.0	741.2521431933783	902.1429836546259	0.0	727.1412694238427	969.7603685834497	0.0	700.831805024616	953.1798413496314	0.0	742.7401943756986	911.6026818219611	0.0	970.4160287541195	602.7995551212218	0.0	1009.0807499946793	788.88533138364	0.0	1056.94195877471	974.0234282138836	0.0	1025.6326813941546	1034.8509420320006	0.0	1063.5397869346184	1033.4472573850517	0.0	1068.8979851330007	1002.4669787757995	0.0	851.865821983136	381.3584191477159	0.0	864.3245836807691	255.50770745143114	0.0	917.1157571009348	331.2570676331831	0.0	773.620188424476	435.0269761685425	0.0	735.913461762331	561.6819958732708	0.0	706.0494580145873	685.5509647337861	0.0	943.7697395642307	378.2966066294615	0.0	1059.2052540909776	422.8725170766054	0.0	1152.420053825852	469.71932657185096	0.0
116	3.8666666666666667	932.933720450739	614.3254357259348	0.0	879.6655462659248	631.4661091646935	0.0	803.4725588833355	791.1982736081211	0.0	740.4531883186858	902.1222422233269	0.0	725.159846778422	970.4204974005912	0.0	699.7001452035571	953.6190932611389	0.0	740.82006751423	910.7327512926892	0.0	988.3807521069803	618.8742679833426	0.0	1052.1125872556113	794.3006720243357	0.0	1128.2035892546633	969.5517886357603	0.0	1132.1247492660875	1027.0485582759443	0.0	1164.393729042519	1019.5660949207215	0.0	1134.823250328086	996.5346083834118	0.0	872.2051016113307	393.58849678566145	0.0	886.1393855190207	270.5252234543658	0.0	940.2934811421486	342.736956285984	0.0	792.6679429585055	448.91507186046937	0.0	741.0892962614298	572.4923585409421	0.0	691.5226545074349	691.9869515687218	0.0	966.5204910967816	388.3159644125437	0.0	1083.6787022602966	407.11541170207977	0.0	1198.0026150635788	414.50431147601	0.0
117	3.9	951.6688450391301	627.1395388756081	0.0	896.277681841996	646.8445677353664	0.0	810.4679468055394	793.3780917990497	0.0	740.1910033273318	901.0902485387721	0.0	723.6994472229818	970.5887757998534	0.0	697.1421863992142	953.6023673587715	0.0	738.0831176134357	909.1539473771197	0.0	1008.5762693082659	633.7336869472779	0.0	1097.1344243857402	800.7333981877857	0.0	1200.074650926222	964.5312909854639	0.0	1246.9184237684735	1014.0916776245753	0.0	1268.068931695062	1000.9403892543515	0.0	1201.9325514800012	989.9054680060042	0.0	898.28510803935	403.8847369353609	0.0	914.0757131681623	284.74824098033747	0.0	968.7598779521086	355.01506397273255	0.0	814.9739236796985	458.7046676714741	0.0	748.3629884431934	569.7763085902487	0.0	683.4736439136036	682.7570586861578	0.0	994.9060216343785	396.76999396740734	0.0	1113.1973544224845	387.11429313010296	0.0	1234.278435763749	359.1768140925932	0.0
118	3.933333333333333	975.4277554289094	637.1370829776623	0.0	918.5834105499166	657.4255741929874	0.0	825.8276790136756	797.4244077787794	0.0	740.1466391068832	899.8711630185437	0.0	722.0028106023329	970.9112593991063	0.0	693.9597696476728	952.9184900261109	0.0	734.6488441813883	907.9167326117134	0.0	1031.7894320010219	644.4880348200998	0.0	1142.3343106021248	806.9099952350904	0.0	1269.7031716367567	962.8125048640042	0.0	1350.0618845633653	997.10820788696	0.0	1357.7677165771736	982.0531629629372	0.0	1270.888889903526	987.8506439374817	0.0	928.9399562178406	412.7390780039902	0.0	945.818493405362	296.3165783262033	0.0	1001.5101229058289	365.21445846425627	0.0	842.0570580109388	464.0922425082785	0.0	759.277072450411	553.7787091819694	0.0	687.1960927612897	663.1335961367578	0.0	1027.0861457044705	404.7756814719669	0.0	1146.8569852659748	368.773459286759	0.0	1264.8539142057796	310.8648854457758	0.0
119	3.966666666666667	1003.9747135068352	644.2959403324736	0.0	946.7049117654758	663.0148452689815	0.0	850.4229163160131	804.8253841185463	0.0	740.181497110985	900.4655354851421	0.0	719.2819735171656	971.8525941208442	0.0	692.2890640930648	952.2617999427545	0.0	732.0376528239707	908.0375047323596	0.0	1059.230340038227	650.5128689422622	0.0	1186.0813591146593	808.383218642204	0.0	1331.7053773017237	964.7377318921057	0.0	1427.056452444499	981.0483051150422	0.0	1424.229491877919	968.0850241283806	0.0	1335.14943384131	991.7019659760723	0.0	963.137253095069	420.22691242684	0.0	978.5664012136604	303.34761055726216	0.0	1036.5048700994905	369.04024616735114	0.0	875.1373290651444	464.01475241983417	0.0	776.1592633454043	525.8474962904444	0.0	707.2079569322904	637.4765720069047	0.0	1060.8083863710197	413.2477615601645	0.0	1181.95741391727	359.5653146093111	0.0	1294.396655583765	277.91490009994527	0.0
120	4.0	1036.9233948359824	650.0202316795743	0.0	979.5121493563933	667.6554952513118	0.0	881.9096955534983	817.2177156262176	0.0	741.6375001324631	903.6125707254332	0.0	715.803170697721	973.3058524201325	0.0	692.5934069867676	952.0782812668342	0.0	732.0709846753514	909.2452335383214	0.0	1092.1645544099467	654.4437746675064	0.0	1229.778102723094	803.3436922326046	0.0	1377.6792570099396	968.0775651371077	0.0	1473.9047482838819	970.986839500234	0.0	1467.3508715029793	961.3275471556099	0.0	1381.6652510356382	997.4264132471512	0.0	999.3392694215113	424.5445046434544	0.0	1011.7542945825683	306.0781038396806	0.0	1071.9827480161348	366.24794736507266	0.0	911.9052297672406	458.2847361680604	0.0	799.7890291299212	491.5311026819883	0.0	746.8352731682321	600.6409125140904	0.0	1094.748950764947	420.60928364341373	0.0	1216.2739185654546	363.2879181947975	0.0	1325.446556700115	268.51984671943376	0.0
121	4.033333333333333	1074.627334889915	656.1418455932895	0.0	1017.0458901601355	675.4282859952388	0.0	917.2444786337855	834.3869429370898	0.0	749.4268239155567	907.0331446352161	0.0	712.8487420663611	975.0460286435223	0.0	694.7790565476505	951.9016520649608	0.0	738.7289347773569	909.6051154944525	0.0	1130.8768767283843	660.2691806594034	0.0	1276.3006983722062	795.4539864528886	0.0	1400.8517338527527	971.615309704623	0.0	1494.440717411669	971.3401492899495	0.0	1489.3302752705567	963.729612019395	0.0	1401.0389883573416	1001.8449940277239	0.0	1036.246899257184	424.2112210676619	0.0	1047.5696278912255	305.8832806119614	0.0	1108.036056258984	361.6767536106207	0.0	948.86044528807	449.7610022383028	0.0	829.4791651612736	461.3411610040523	0.0	803.8210448353616	541.6759779219233	0.0	1129.5465787297992	424.1101442617364	0.0	1248.2162598739264	380.06246423784773	0.0	1354.4858716214055	290.4943458856177	0.0
122	4.066666666666666	1116.5416771274545	664.1152624057468	0.0	1059.5809317201492	686.3564100390217	0.0	954.6028038472571	851.8911511128035	0.0	768.7604371991786	906.463237229115	0.0	713.3589877810556	975.8416715004253	0.0	700.6744048004346	950.847845579295	0.0	756.886489854313	905.3645354142235	0.0	1173.0889015075568	669.7759474245167	0.0	1324.1203813812733	790.2765993892986	0.0	1403.9616877486078	975.3530734768457	0.0	1497.0111292908118	985.5927409864321	0.0	1493.5967625534633	977.5855879035147	0.0	1396.944101666808	1004.8879263841993	0.0	1075.5933643279388	421.20761809967536	0.0	1087.8145266336007	303.8273967638966	0.0	1146.5001126253112	359.6470852970127	0.0	987.502622581593	444.3609242234015	0.0	863.5241612807333	445.1322993516404	0.0	869.3070656267904	468.1689489308145	0.0	1168.7972325992541	424.99827927092224	0.0	1278.8014599226954	410.7840352148074	0.0	1375.417847554101	345.7800672217753	0.0
123	4.1	1159.6935390401986	674.3501524294778	0.0	1104.9977561523544	697.5171754659914	0.0	992.3777312204534	863.8835283674878	0.0	798.7790797088055	898.7645985709443	0.0	722.4488664818946	972.2935544780025	0.0	713.8604695121255	946.9044900238716	0.0	785.7643130033555	892.7251702935805	0.0	1214.089563230499	682.0420127173812	0.0	1365.8981678184548	789.1485958394584	0.0	1400.1479846337193	978.8222642775386	0.0	1491.4507081860806	1008.3623233869207	0.0	1488.584209110697	998.3894316383447	0.0	1385.0629723438005	1007.347424906693	0.0	1121.78680324678	419.9653888368175	0.0	1132.354222819563	301.35264567631174	0.0	1189.9379964733932	359.4580279605049	0.0	1035.2259475791475	446.78170941147187	0.0	900.5260664970316	444.79853799283364	0.0	936.9745701819866	408.62167840805165	0.0	1215.0434752152503	430.1883992173491	0.0	1308.7042745768872	458.27968072834835	0.0	1386.7780331351325	424.3436743922385	0.0
